<svg id="Layer_1" data-name="Layer 1" xmlns="http://www.w3.org/2000/svg" xmlns:xlink="http://www.w3.org/1999/xlink" viewBox="0 0 360.22 159.15"><defs><style>.cls-1{fill:url(#linear-gradient);}.cls-2{fill:url(#linear-gradient-2);}.cls-3{fill:none;}.cls-4{fill:url(#linear-gradient-3);}</style><linearGradient id="linear-gradient" x1="69.89" y1="273" x2="430.11" y2="273" gradientUnits="userSpaceOnUse"><stop offset="0" stop-color="#d11820"/><stop offset="0.7" stop-color="#056839"/><stop offset="1" stop-color="#29af6e"/></linearGradient><linearGradient id="linear-gradient-2" x1="74.68" y1="273.02" x2="426.3" y2="273.02" gradientUnits="userSpaceOnUse"><stop offset="0" stop-color="#d11820"/><stop offset="0.52" stop-color="#ed4723"/><stop offset="1" stop-color="#9a0e0c"/></linearGradient><linearGradient id="linear-gradient-3" x1="86.36" y1="308.43" x2="266.6" y2="308.43" gradientUnits="userSpaceOnUse"><stop offset="0" stop-color="#72bf44"/><stop offset="1" stop-color="#39b54a"/></linearGradient></defs><path class="cls-1" d="M69.89,284.15c31.21-20.73,54.78-35.23,62.47-39.41a148.49,148.49,0,0,1,15.71-7.34c2.07-.8,4.26-1.58,6.59-2.33a103.94,103.94,0,0,1,24.54-5.2,123,123,0,0,1,31.4,1,130.59,130.59,0,0,1,29.58,8.64c26.3,10.47,31.14,16.22,58,24.54,2.7.84,30,9.08,49.82,4.46a60.26,60.26,0,0,0,17.85-7.43c2.22-1.48,4.73-3.73,9.66-8.18,11.86-10.68,11.59-11.5,16.36-14.87S402,231,409.72,229.87c3.61-.53,10.82-1.52,17.56,4,8.37,6.9-4,28.29-9.38,38.34-3.52,6.58-13.78,25.12-35.69,35.7-10.22,4.93-19.14,6.28-26.77,7.43a122.1,122.1,0,0,1-35.7,0c-15.74-2.3-30.79-9-60.23-22.31-14.08-6.36-11.3-5.5-22.31-10.41-29.53-13.17-45.08-20.1-65.43-23.05a141.61,141.61,0,0,0-40.16,0A144.14,144.14,0,0,0,69.89,284.15Z" transform="translate(-69.89 -170.42)"/><path class="cls-2" d="M426.3,255.56c-2.66,6.29-6.55,13.23-8.8,17.44a78.48,78.48,0,0,1-36.08,35.32c-10.17,5-19.31,6.05-26.94,7.2a123.75,123.75,0,0,1-35.71-.14c-15.75-2.3-30.79-9-60.23-22.3-14.08-6.37-11.31-5.51-22.31-10.41-29.54-13.17-45.08-20.1-65.44-23.06a141.52,141.52,0,0,0-96.11,20.73c28.33-18.69,49.5-31.67,56.7-35.6a148.21,148.21,0,0,1,15.71-7.33c2.07-.8,4.26-1.58,6.6-2.33a103.73,103.73,0,0,1,24.54-5.21,125,125,0,0,1,61.35,9.43c26.3,10.47,30.16,15.59,57.56,24.45,13.74,4.81,47.84,10.93,61.78,10.74A134.59,134.59,0,0,0,408,264.08C414,261.58,421.59,258.31,426.3,255.56Z" transform="translate(-69.89 -170.42)"/><path class="cls-3" d="M427.72,255.56h0a155.49,155.49,0,0,1-17.32,8.52,134.59,134.59,0,0,1-49.08,10.41c-13.94.19-48-5.6-61.71-10.41" transform="translate(-69.89 -170.42)"/><path d="M113.52,172.07h24.19l28.08,89.42h-21.4l-11.7-45.29c-2.48-8.94-4.87-19.51-7.26-28.84h-.55c-2.16,9.44-4.55,19.9-7,28.84L106.1,261.49H85.44ZM104,224.48h43v15.71H104Z" transform="translate(-69.89 -170.42)"/><path d="M210.42,211.07v16.5h14.82v6.63l.68.2.93.28.92.29,1.78.58,1.71.59,1.64.58c.53.19,1.06.38,1.57.58l1.52.58c1.26.48,2.46,1,3.59,1.41s2.45,1,3.61,1.46V211.07Zm3.05-40.65c-23.87,0-43.58,17.21-43.58,46.87a59.8,59.8,0,0,0,1.43,13.4l0,.14c2.44-.41,5.06-.75,7.86-1,4.49-.36,8.77-.57,13.1-.53v0a43.4,43.4,0,0,1-1.69-12.7c0-17.92,9.78-28.74,23.54-28.74,7.67,0,12.44,3,16.88,7.12l10.66-13A38.76,38.76,0,0,0,213.47,170.42Z" transform="translate(-69.89 -170.42)"/><path d="M312.43,225.73l-8.3-14.68-14,12.94,2.82,5.32L310,261.49h22.62Zm-18.59-53.65h-32.2v77l3.62,1.75,1.24.61c1.31.64,2.61,1.27,3.94,1.9l1.34.63c3.13,1.47,6.38,2.92,10.07,4.4V229.31h12a45.34,45.34,0,0,0,18.59-3.58c9.56-4.3,15.92-12.66,15.92-25.81C328.35,178.66,312.81,172.08,293.84,172.08Zm-12,16H292.2c10.63,0,16.34,3,16.34,11.79s-5.71,13.34-16.34,13.34H281.85Z" transform="translate(-69.89 -170.42)"/><path d="M341.52,217.29c0-29.66,19.61-46.87,42.2-46.87A37.74,37.74,0,0,1,410.62,182L400,195c-4.49-4.18-9.31-7.11-15.78-7.11-12.27,0-21.95,10.81-21.95,28.74,0,18.38,8.55,29.06,21.62,29.06,7.35,0,13.12-3.62,17.5-8.36L412,250a36.78,36.78,0,0,1-28.87,13.12C360.45,263.13,341.52,247.41,341.52,217.29Z" transform="translate(-69.89 -170.42)"/><path d="M112.92,298.73c12.4-10.2,20.63-16.42,20.63-23.08a4.25,4.25,0,0,0-4.59-4.59c-2.19,0-4.05,1.24-6.26,3.05l-4-4.78c3.66-3.08,7.38-4.78,11.22-4.78,7.19,0,11.6,4.14,11.6,10.25,0,7.72-6.2,13.21-15.58,21.69h12.92l-1.33,6.91H112Z" transform="translate(-69.89 -170.42)"/><path d="M145.61,290.44c0-16.9,8.61-25.89,16.79-25.89,6.18,0,10.68,4.7,10.68,13.79,0,16.9-8.52,25.78-16.69,25.78C150.18,304.12,145.61,299.46,145.61,290.44Zm19.95-12.92c0-4.7-1.35-6.66-3.68-6.66-4.32,0-8.66,9.17-8.66,20.41,0,4.67,1.33,6.54,3.66,6.54C161.2,297.81,165.56,288.78,165.56,277.52Z" transform="translate(-69.89 -170.42)"/><path d="M174,298.73c12.41-10.2,20.64-16.42,20.64-23.08a4.26,4.26,0,0,0-4.6-4.59c-2.19,0-4,1.24-6.26,3.05l-3.95-4.78c3.66-3.08,7.38-4.78,11.22-4.78,7.19,0,11.6,4.14,11.6,10.25,0,7.72-6.19,13.21-15.58,21.69H200l-1.33,6.91H173.12Z" transform="translate(-69.89 -170.42)"/><path d="M204.59,298.73c12.4-10.2,20.63-16.42,20.63-23.08a4.25,4.25,0,0,0-4.59-4.59c-2.19,0-4,1.24-6.26,3.05l-4-4.78c3.66-3.08,7.37-4.78,11.22-4.78,7.19,0,11.6,4.14,11.6,10.25,0,7.72-6.2,13.21-15.58,21.69h12.92l-1.33,6.91H203.67Z" transform="translate(-69.89 -170.42)"/><line class="cls-3" x1="13.78" y1="92.71" x2="26.84" y2="92.71"/><rect class="cls-3" x="42.74" y="94.12" width="120.6" height="39.57"/><path class="cls-4" d="M251.93,315.26a68.09,68.09,0,0,1-17.66,10.3,63.24,63.24,0,0,1-38.63,1.84c-4.86-1.33-12-5.88-26.13-14.72l-11.77-7.36c-4-2.32-18.41-10.58-33.12-13.24-21.27-3.86-38,4.94-38.26,4.05s13.93-6.91,32-8.47a99.1,99.1,0,0,1,21,.37c2.95.38,7.93,1.17,25,6.62,19.35,6.18,20.26,7.5,30.54,9.94a154.75,154.75,0,0,0,23.18,3.68c6.93.56,18,1.45,28-.37a58.5,58.5,0,0,0,20.55-8.11A76.46,76.46,0,0,1,251.93,315.26Z" transform="translate(-69.89 -170.42)"/></svg>